<?xml version="1.0" encoding="UTF-8"?>
<svg xmlns="http://www.w3.org/2000/svg" version="1.1" viewBox="0 0 150 35">
  <defs>
    <style>
      .cls-1 {
        fill: #45e688;
      }
    </style>
  </defs>
  <!-- Generator: Adobe Illustrator 28.7.5, SVG Export Plug-In . SVG Version: 1.2.0 Build 176)  -->
  <g>
    <g id="Capa_1">
      <g>
        <path class="cls-1" d="M14,16.1V.8h8.1l.6,1.6c-1.2-.2-2.5-.2-3.7-.2h-2.2v5.6h1.1c1.2,0,2.5,0,3.7-.2v1.7c-1.2,0-2.4-.1-3.5-.1s-.9,0-1.3,0v5.7h4c1.4,0,2.8,0,4.2-.3l-.6,1.6h-10.5Z"/>
        <path class="cls-1" d="M37.4.8h1.4v16.2c-1.5-1.6-3-3.3-4.5-5-2.2-2.5-4.6-4.9-6.8-7.5v9.1h-1.4c0-3.9,0-5.2,0-9.1,0-1.2,0-2.4-.2-3.6h2c1.1,1.5,2.4,2.9,3.6,4.4,1.8,2.2,3.9,4.2,5.8,6.4V.8Z"/>
        <path class="cls-1" d="M45.7,16.1V2.1h-5.2l.3-1.4h13v1.4s-5.3,0-5.3,0c0,4.7,0,9.3,0,14h-2.8Z"/>
        <path class="cls-1" d="M64,16.1c-1.4-2.3-2.8-4.6-4.2-7-.3,0-.7,0-1,0l.4-.6c2,0,3.3-1.3,3.3-3.3s-1.4-3-3.2-3-.5,0-.8,0v14h-2.8V.8s4.3,0,4.3,0c2.6,0,5.3,1.3,5.3,4.2s-1,3.1-2.8,3.7c1.5,2.5,3.3,4.9,4.8,7.4h-3.3Z"/>
        <path class="cls-1" d="M69.3,16.1V.8h8.1l.6,1.6c-1.2-.2-2.5-.2-3.7-.2h-2.2v5.6h1.1c1.2,0,2.5,0,3.7-.2v1.7c-1.2,0-2.4-.1-3.5-.1s-.9,0-1.3,0v5.7h2.7c1.4,0,2.8,0,4.2-.3l-.6,1.6h-9.2Z"/>
        <path class="cls-1" d="M43.6,34.7v-15.4s4.3,0,4.3,0c2.6,0,5.3,1.3,5.3,4.2s-2.9,4.2-5.6,4.2-.6,0-.8,0l.4-.6c2,0,3.3-1.3,3.3-3.3s-1.4-3-3.2-3-.5,0-.8,0v14h-2.8Z"/>
        <path class="cls-1" d="M64,34.7c-1.4-2.3-2.8-4.6-4.2-7-.3,0-.7,0-1,0l.4-.6c2,0,3.3-1.3,3.3-3.3s-1.4-3-3.2-3-.5,0-.8,0v14h-2.8v-15.4s4.3,0,4.3,0c2.6,0,5.3,1.3,5.3,4.2s-1,3.1-2.8,3.7c1.5,2.5,3.3,4.9,4.8,7.4h-3.3Z"/>
        <path class="cls-1" d="M69.3,34.7v-15.4h8.1l.6,1.6c-1.2-.2-2.5-.2-3.7-.2h-2.2v5.6h1.1c1.2,0,2.5,0,3.7-.2v1.7c-1.2,0-2.4-.1-3.5-.1s-.9,0-1.3,0v5.7h2.7c1.4,0,2.8,0,4.2-.3l-.6,1.6h-9.2Z"/>
        <path class="cls-1" d="M123.2,34.7c-.6-1.7-1.3-3.3-2-4.9h-5.3l-2.1,4.9h-1.7l6.7-15.4h1c.8,2.2,1.7,4.3,2.7,6.4,1.3,3,2.6,6,3.9,9h-3.2ZM118.6,23.4l-2,4.8h4l-2-4.8Z"/>
        <path class="cls-1" d="M129,29.7c.2,1.8,1.8,3.8,3.6,3.8s2.6-.8,2.6-2.3c0-3.8-6.7-2.9-6.7-8.1s2.2-4,4.4-4c1.4,0,2.8.5,3.9,1.3l-1,2.1c-.6-1.1-1.6-2-2.9-2-1,0-1.9.8-1.9,1.8,0,0,0,0,0,.1,0,3.8,6.7,2.7,6.7,7.9,0,2.7-2.4,4.6-5,4.6-1.7,0-3.4-.6-4.6-1.8l.9-3.5Z"/>
        <path class="cls-1" d="M92.3,29.6c-1.9-2.2-3.5-3.7-5.3-5.9-1.2-1.4-2.5-2.9-3.6-4.4h-2c.1,1.2.2,2.4.2,3.6,0,3.9,0,7.8,0,11.8h1.4v-11.8c2.1,2.6,4.5,5,6.8,7.5,1.1,1.2,1.7,2,2.8,3.1l-.2-4Z"/>
        <path class="cls-1" d="M94.1,14.4c-1.3,0-1.1,2.7-1,3.1l1.4,24.5.8-24.5c0-.4.2-3.1-1.1-3ZM94.7,18c0,.2,0,1.4-.5,1.5s-.5-1.2-.5-1.4v-1.5c0-.2,0-1.2.5-1.3s.5,1.1.5,1.2v1.5Z"/>
        <path class="cls-1" d="M98.3,21.3c-.3-.5-.5-1-.9-1.5h0c.3.5.6,1,.8,1.5.4.8.6,1.6.8,2.4.4,1.4.5,2.9.5,4.3,0-1.5-.1-2.9-.5-4.3-.2-.8-.5-1.6-.8-2.4Z"/>
        <path class="cls-1" d="M105.1,19.5c-.9-.1-1.9-.2-2.8-.1h-3.6c.3.5.6.9.8,1.4.3.6.5,1.3.7,1.9v-1.9h1.7c.8,0,1.6,0,2.4.2,2.9.7,4.2,3.4,4.2,6.2s-.6,4.7-3.3,5.7c-1,.3-2.2.3-3.2.3s-1.2,0-1.7,0c0,.2,0,.4-.1.7,0,.3-.1.6-.2.9h1.5c1,0,2,0,3.1-.1,4.2-.5,7.1-3.6,7.1-7.9,0-3.7-3.1-6.7-6.7-7.2Z"/>
        <path class="cls-1" d="M99.1,23.7c-.2-.8-.5-1.6-.8-2.4-.3-.5-.5-1-.9-1.5-.2-.2-.3-.5-.5-.7-.5-.7-1.1-1.3-1.8-1.8-.2-.1-.3-.3-.5-.4l-.5-.3c-.1-.1-.3-.2-.4-.3-.1-.1-.3-.2-.4-.4-1.1-1.1-1.9-2.4-2.4-3.8-.5-1.5-.9-3-1-4.5-.2-1.6-.2-3.2,0-4.8-.4,1.6-.7,3.2-.7,4.8,0,1.7.2,3.3.7,4.9.5,1.6,1.4,3.1,2.5,4.4.1.2.3.3.5.4.2.1.3.3.5.4l.5.4c.2.1.3.2.4.3.6.5,1.1,1,1.6,1.6.7.8,1.2,1.8,1.6,2.8.2.4.3.8.4,1.2.4,1.5.7,3,.7,4.6,0,2,0,4-.4,6-.2,1.1-.4,2.3-.7,3.4.5-1.1.9-2.2,1.2-3.4.1-.4.2-.8.3-1.2.4-1.6.6-3.2.7-4.8,0-1.7,0-3.3-.5-5Z"/>
      </g>
    </g>
  </g>
</svg>