<?xml version="1.0" encoding="UTF-8"?>
<svg xmlns="http://www.w3.org/2000/svg" version="1.1" viewBox="0 0 217 60">
  <defs>
    <style>
      .cls-1 {
        fill: #225643;
      }
    </style>
  </defs>
  <!-- Generator: Adobe Illustrator 28.7.5, SVG Export Plug-In . SVG Version: 1.2.0 Build 176)  -->
  <g>
    <g id="Capa_1">
      <g>
        <path class="cls-1" d="M0,27V0h14.2l1.1,2.7c-2.2-.3-4.4-.4-6.6-.3h-3.8v9.8h1.9c2.2,0,4.4-.1,6.5-.4v2.9c-2.1-.2-4.2-.2-6.2-.2s-1.5,0-2.3,0v10h7.1c2.5,0,5,0,7.4-.4l-1,2.8H0Z"/>
        <path class="cls-1" d="M40.9,0h2.4v28.3c-2.6-2.9-5.3-5.8-8-8.7-3.9-4.4-8.1-8.6-11.8-13.2v15.9h-2.4c0-6.9,0-9.1,0-15.9,0-2.1,0-4.3-.3-6.4h3.5c2,2.6,4.2,5.1,6.4,7.6,3.2,3.8,6.9,7.3,10.2,11.2V0Z"/>
        <path class="cls-1" d="M55.5,27V2.5h-9.1l.6-2.4h22.9v2.4s-9.4,0-9.4,0c0,8.2,0,16.4,0,24.6h-5Z"/>
        <path class="cls-1" d="M87.6,27c-2.4-4.1-4.9-8.1-7.3-12.2-.6,0-1.2,0-1.8,0l.7-1.1c3.6,0,5.8-2.3,5.8-5.8s-2.4-5.3-5.6-5.3-1,0-1.4,0v24.5h-4.9V0s7.5,0,7.5,0c4.6,0,9.2,2.3,9.2,7.4s-1.8,5.5-4.9,6.5c2.7,4.4,5.7,8.6,8.5,13h-5.7Z"/>
        <path class="cls-1" d="M96.9,27V0h14.3l1.1,2.7c-2.2-.3-4.4-.4-6.6-.3h-3.8v9.8h1.9c2.2,0,4.4-.1,6.5-.4v2.9c-2.1-.2-4.2-.2-6.2-.2s-1.5,0-2.3,0v10h4.8c2.5,0,5,0,7.4-.4l-1,2.8h-16.1Z"/>
        <path class="cls-1" d="M51.9,59.6v-27s7.5,0,7.5,0c4.6,0,9.2,2.3,9.2,7.4s-5.1,7.3-9.8,7.3-1,0-1.5,0l.7-1.1c3.6,0,5.8-2.3,5.8-5.8s-2.4-5.3-5.6-5.3-1,0-1.4,0v24.5h-4.8Z"/>
        <path class="cls-1" d="M87.6,59.6c-2.4-4.1-4.9-8.1-7.3-12.2-.6,0-1.2,0-1.8,0l.7-1.1c3.6,0,5.8-2.3,5.8-5.8s-2.4-5.3-5.6-5.3-1,0-1.4,0v24.5h-4.9v-27s7.5,0,7.5,0c4.6,0,9.2,2.3,9.2,7.4s-1.8,5.5-4.9,6.5c2.7,4.4,5.7,8.6,8.5,13h-5.7Z"/>
        <path class="cls-1" d="M96.9,59.6v-27h14.2l1.1,2.7c-2.2-.3-4.4-.4-6.6-.3h-3.8v9.7h1.9c2.2,0,4.4-.1,6.5-.4v2.9c-2.1-.2-4.2-.2-6.2-.2s-1.5,0-2.3,0v10h4.8c2.5,0,5,0,7.4-.4l-1,2.8h-16.1Z"/>
        <path class="cls-1" d="M191.6,59.6c-1-2.9-2.2-5.8-3.4-8.6h-9.2l-3.7,8.6h-2.9l11.7-27h1.7c1.3,3.9,3.1,7.6,4.7,11.3,2.2,5.3,4.6,10.5,6.9,15.7h-5.6ZM183.5,39.7l-3.4,8.4h7l-3.5-8.4Z"/>
        <path class="cls-1" d="M201.7,50.9c.3,3.1,3.2,6.6,6.4,6.6s4.5-1.4,4.5-4.1c0-6.6-11.8-5-11.8-14.1s3.8-7,7.8-7c2.5,0,4.9.8,6.8,2.3l-1.7,3.7c-1-2-2.9-3.5-5.2-3.5-1.8,0-3.3,1.4-3.3,3.2,0,0,0,.2,0,.3,0,6.6,11.7,4.8,11.7,13.8,0,4.8-4.2,8-8.8,8-3,0-5.9-1.1-8.1-3.1l1.7-6.1Z"/>
        <path class="cls-1" d="M137.3,50.6c-3.3-3.9-6.1-6.5-9.3-10.3-2.1-2.5-4.4-5-6.4-7.6h-3.5c.2,2.1.3,4.2.3,6.4,0,6.9,0,13.7,0,20.6h2.4v-20.6c3.8,4.6,7.9,8.8,11.8,13.2,1.9,2.1,3,3.4,4.9,5.5l-.3-7.1Z"/>
        <path class="cls-1" d="M140.5,24c-2.3,0-1.9,4.7-1.8,5.4l2.4,42.9,1.4-43c0-.7.3-5.4-2-5.3ZM141.4,30.2c0,.3,0,2.5-.8,2.6s-.9-2.2-.9-2.5v-2.6c0-.3,0-2.2.8-2.2s.9,1.8.9,2.2v2.6Z"/>
        <path class="cls-1" d="M147.8,36.1c-.4-.9-.9-1.8-1.5-2.6h0c.5.8,1,1.7,1.5,2.6.6,1.3,1.1,2.7,1.5,4.2.6,2.5.9,5,.9,7.6,0-2.6-.3-5.1-.9-7.6-.3-1.4-.8-2.8-1.5-4.2Z"/>
        <path class="cls-1" d="M159.8,32.9c-1.6-.2-3.3-.3-4.9-.2h-6.2c.5.8,1,1.6,1.4,2.4.5,1.1.9,2.2,1.3,3.4v-3.3h3c1.4,0,2.9,0,4.3.4,5,1.2,7.4,5.9,7.4,10.8s-1.1,8.2-5.7,10c-1.7.6-3.8.6-5.6.6s-2,0-3.1,0c0,.4-.2.8-.2,1.2-.1.5-.3,1-.4,1.5h2.7c1.8,0,3.6,0,5.4-.2,7.4-.8,12.4-6.3,12.4-13.8,0-6.5-5.4-11.8-11.7-12.7Z"/>
        <path class="cls-1" d="M149.3,40.3c-.4-1.4-.9-2.8-1.5-4.2-.4-.9-.9-1.8-1.5-2.6-.3-.4-.6-.8-.9-1.2-.9-1.2-2-2.3-3.1-3.2-.3-.2-.6-.5-.9-.7l-.8-.6c-.3-.2-.5-.4-.8-.6-.3-.2-.5-.4-.7-.7-1.9-1.9-3.3-4.2-4.2-6.7-1-2.6-1.6-5.2-1.8-8-.3-2.8-.3-5.6-.1-8.4-.8,2.7-1.2,5.6-1.2,8.4,0,2.9.3,5.8,1.2,8.6.9,2.9,2.4,5.5,4.5,7.7.3.3.5.5.8.8.3.3.6.5.9.7l.9.7c.3.2.5.4.8.6,1,.8,2,1.8,2.8,2.8,1.2,1.5,2.1,3.1,2.8,4.9.3.7.6,1.4.8,2.2.7,2.6,1.2,5.3,1.2,8.1,0,3.5-.2,7.1-.8,10.6-.3,2-.7,4-1.2,6,.9-1.9,1.6-3.9,2.1-6,.2-.7.4-1.4.5-2.1.7-2.8,1.1-5.6,1.2-8.5.1-2.9-.1-5.8-.8-8.7Z"/>
      </g>
    </g>
  </g>
</svg>