<?xml version="1.0" encoding="UTF-8"?>
<svg xmlns="http://www.w3.org/2000/svg" version="1.1" viewBox="0 0 53 60">
  <defs>
    <style>
      .cls-1 {
        fill: #45e688;
      }
    </style>
  </defs>
  <!-- Generator: Adobe Illustrator 28.7.5, SVG Export Plug-In . SVG Version: 1.2.0 Build 176)  -->
  <g>
    <g id="Capa_1">
      <g>
        <path class="cls-1" d="M31.5,42.5c-4.9-5.8-9.2-9.8-14.1-15.6-3.2-3.8-6.6-7.6-9.6-11.5H2.5c.4,3.2.5,6.4.5,9.6,0,10.4,0,20.7,0,31.1h3.6v-31.1c5.7,6.9,12,13.3,17.9,19.9,2.9,3.2,4.5,5.2,7.5,8.3l-.4-10.7Z"/>
        <path class="cls-1" d="M36.4,2.3c-3.4,0-2.8,7.1-2.8,8.1l3.7,64.8,2.1-64.9c.1-1,.4-8.1-3-8ZM37.8,11.7c0,.5,0,3.8-1.2,3.9s-1.4-3.3-1.4-3.8v-3.9c0-.5,0-3.3,1.2-3.3,1.3,0,1.4,2.8,1.4,3.3v3.9Z"/>
        <path class="cls-1" d="M47.4,20.7c-.7-1.3-1.4-2.7-2.3-3.9h0c.8,1.3,1.6,2.6,2.2,3.9.9,2,1.7,4.1,2.2,6.3.9,3.7,1.4,7.6,1.3,11.4,0-3.9-.4-7.7-1.3-11.4-.5-2.2-1.3-4.3-2.2-6.3Z"/>
        <path class="cls-1" d="M49.7,27c-.5-2.2-1.3-4.3-2.2-6.3-.7-1.3-1.4-2.7-2.3-3.9-.4-.6-.9-1.3-1.3-1.8-1.4-1.8-3-3.4-4.8-4.8-.4-.4-.9-.7-1.4-1l-1.2-.9c-.4-.3-.8-.6-1.1-.9-.4-.3-.7-.7-1.1-1C31.5,3.3,29.3,0,27.9-3.9c-1.4-3.9-2.4-7.9-2.8-12-.4-4.2-.5-8.4-.2-12.7-1.2,4.1-1.8,8.4-1.8,12.8,0,4.4.5,8.8,1.8,13,1.3,4.3,3.6,8.3,6.7,11.6.4.4.8.8,1.2,1.2.4.4.9.8,1.3,1.1l1.3,1c.4.3.8.6,1.2.9,1.6,1.2,3,2.6,4.2,4.2,1.8,2.2,3.2,4.7,4.2,7.4.4,1.1.8,2.2,1.2,3.3,1.1,4,1.7,8.1,1.8,12.2.1,5.4-.3,10.7-1.1,16-.5,3-1.1,6-1.8,9,1.3-2.9,2.4-5.9,3.2-9,.3-1,.6-2.1.8-3.2,1-4.2,1.6-8.5,1.7-12.8.2-4.4-.2-8.8-1.3-13.1Z"/>
      </g>
    </g>
  </g>
</svg>