<?xml version="1.0" encoding="UTF-8"?>
<svg xmlns="http://www.w3.org/2000/svg" version="1.1" viewBox="0 0 30 30">
  <defs>
    <style>
      .cls-1 {
        fill: #225643;
      }

      .cls-2 {
        fill: #45e688;
      }
    </style>
  </defs>
  <!-- Generator: Adobe Illustrator 28.7.5, SVG Export Plug-In . SVG Version: 1.2.0 Build 176)  -->
  <g>
    <g id="Capa_1">
      <circle class="cls-2" cx="15" cy="15" r="15"/>
      <g>
        <path class="cls-1" d="M20.2,23.9h-10.4c-.2,0-.4-.2-.4-.4,0-2.7.9-4.5,1.6-5.6.6-.9.7-1.9.4-2.8l-.4-1.3h-2.3c-.4,0-.7-.3-.7-.7v-1c0-1.2.9-2.2,2.2-2.6l2.5-.7v-1.2c0-.2.2-.4.4-.4h3.9c.2,0,.4.2.4.4v1.2l2.5.7c1.3.4,2.2,1.4,2.2,2.6v1c0,.4-.3.7-.7.7h-2.3l-.4,1.3c-.3,1-.2,2,.4,2.8.7,1.1,1.6,3,1.6,5.6s-.2.4-.4.4ZM10.2,23.1h9.6c0-2.3-.8-3.9-1.5-4.8-.7-1-.9-2.3-.5-3.5l.5-1.6c0-.2.2-.3.4-.3h2.5v-.9c0-.8-.7-1.6-1.6-1.8l-2.8-.7c-.2,0-.3-.2-.3-.4v-1.1h-3.1v1.1c0,.2-.1.3-.3.4l-2.8.7c-1,.3-1.6,1-1.6,1.8v.9h2.5c.2,0,.3.1.4.3l.5,1.6c.4,1.2.2,2.5-.5,3.5-.6,1-1.4,2.6-1.5,4.8Z"/>
        <path class="cls-1" d="M18.6,25.5h-7.1c-.2,0-.4-.2-.4-.4v-1.6c0-.2.2-.4.4-.4s.4.2.4.4v1.2h6.3v-1.2c0-.2.2-.4.4-.4s.4.2.4.4v1.6c0,.2-.2.4-.4.4Z"/>
        <path class="cls-1" d="M15,8.1c-.2,0-.4-.2-.4-.4v-1.1c0-.2.2-.4.4-.4s.4.2.4.4v1.1c0,.2-.2.4-.4.4Z"/>
        <path class="cls-1" d="M15.2,7h-.4c-.7,0-1.3-.6-1.3-1.3v-.4c0-.7.6-1.3,1.3-1.3h.4c.7,0,1.3.6,1.3,1.3v.4c0,.7-.6,1.3-1.3,1.3ZM14.8,4.9c-.3,0-.5.2-.5.5v.4c0,.3.2.5.5.5h.4c.3,0,.5-.2.5-.5v-.4c0-.3-.2-.5-.5-.5h-.4Z"/>
      </g>
    </g>
  </g>
</svg>