<?xml version="1.0" encoding="UTF-8"?>
<svg xmlns="http://www.w3.org/2000/svg" version="1.1" viewBox="0 0 30 30">
  <defs>
    <style>
      .cls-1 {
        fill: #225643;
      }

      .cls-2 {
        fill: #fff;
      }
    </style>
  </defs>
  <!-- Generator: Adobe Illustrator 28.7.5, SVG Export Plug-In . SVG Version: 1.2.0 Build 176)  -->
  <g>
    <g id="Capa_1">
      <circle class="cls-1" cx="15" cy="15" r="15"/>
      <g>
        <path class="cls-2" d="M11.7,23.2c0,0-.2,0-.3-.1l-6.4-6.4c-.1-.1-.1-.4,0-.5L14.2,6.9c0,0,.2-.1.3-.1l6,.4c.2,0,.3.2.3.3l.4,6c0,.1,0,.2-.1.3l-9.2,9.2c0,0-.2.1-.3.1ZM5.8,16.4l5.9,5.9,8.8-8.8-.4-5.5-5.5-.4-8.8,8.8Z"/>
        <path class="cls-2" d="M15.1,27.1c0,0-.1,0-.2,0l-7.9-4.6c0,0-.2-.1-.2-.2,0,0,0-.2,0-.3l1.4-2.4c.1-.2.3-.2.5-.1.2.1.2.3.1.5l-1.2,2,7.2,4.2,6.2-10.8-.7-2.1c0-.2,0-.4.2-.5.2,0,.4,0,.5.2l.8,2.2c0,.1,0,.2,0,.3l-6.5,11.3c0,.1-.2.2-.3.2Z"/>
        <path class="cls-2" d="M16.9,13.1c-.5,0-1-.2-1.3-.6-.7-.7-.7-1.9,0-2.7h0c.4-.4.8-.6,1.3-.6s1,.2,1.3.6c.7.7.7,1.9,0,2.7-.4.4-.8.6-1.3.6ZM16.1,10.4c-.4.4-.4,1.2,0,1.6.4.4,1.2.4,1.6,0,.4-.4.4-1.2,0-1.6-.4-.4-1.2-.4-1.6,0h0Z"/>
        <path class="cls-2" d="M17.4,11.1c0,0-.2,0-.3-.1-.1-.1-.1-.4,0-.5l5.7-5.7c.1-.1.4-.1.5,0,.1.1.1.4,0,.5l-5.7,5.7c0,0-.2.1-.3.1Z"/>
        <g>
          <path class="cls-2" d="M12.2,15.4c-.3,0-.7-.1-.9-.4-.2-.2-.4-.6-.4-.9s.1-.7.4-.9c.5-.5,1.3-.5,1.8,0,.2.2.4.6.4.9s-.1.7-.4.9c-.2.2-.6.4-.9.4ZM12.2,13.6c-.1,0-.3,0-.4.2,0,0-.2.2-.2.4s0,.3.2.4.2.2.4.2.3,0,.4-.2.2-.2.2-.4,0-.3-.2-.4c-.1-.1-.2-.2-.4-.2Z"/>
          <path class="cls-2" d="M12.2,19c-.3,0-.7-.1-.9-.4-.2-.2-.4-.6-.4-.9s.1-.7.4-.9h0c.2-.2.6-.4.9-.4s.7.1.9.4c.2.2.4.6.4.9s-.1.7-.4.9c-.2.2-.6.4-.9.4ZM12.2,17.2c-.1,0-.3,0-.4.2h0c-.2.2-.2.5,0,.7,0,0,.2.2.4.2s.3,0,.4-.2c.2-.2.2-.5,0-.7,0,0-.2-.2-.4-.2ZM11.5,17.1h0,0Z"/>
          <path class="cls-2" d="M9.3,16.5c-.2,0-.4-.2-.4-.4,0-.2.1-.4.4-.4l5.6-.4c.2,0,.4.1.4.4,0,.2-.1.4-.4.4l-5.6.4s0,0,0,0Z"/>
        </g>
      </g>
    </g>
  </g>
</svg>