<?xml version="1.0" encoding="UTF-8"?>
<svg xmlns="http://www.w3.org/2000/svg" version="1.1" viewBox="0 0 97 98">
  <defs>
    <style>
      .cls-1 {
        fill: #225643;
      }
    </style>
  </defs>
  <!-- Generator: Adobe Illustrator 28.7.5, SVG Export Plug-In . SVG Version: 1.2.0 Build 176)  -->
  <g>
    <g id="Capa_1">
      <g>
        <path class="cls-1" d="M17.1,98c-1.9,0-3.7-.6-5.2-1.5-3.8-2.4-5.3-6.9-3.8-11.2L27.4,29.7c.2-.6.7-1.1,1.3-1.3l55.7-19.3h0c4.3-1.5,8.8,0,11.2,3.8,2,3.2,2.4,8.2-1.5,12L23.9,95.1c-2.1,2.1-4.5,2.9-6.9,2.9ZM31,32l-19,54.7c-1.1,3,.4,5.3,2.1,6.3,1.7,1.1,4.5,1.5,6.9-.9L91.1,22c2.4-2.4,2-5.2.9-6.9-1.1-1.7-3.3-3.2-6.3-2.1L31,32Z"/>
        <path class="cls-1" d="M29.3,32.4c-.5,0-1.1-.2-1.5-.6l-5.3-5.3c-2-2-2.1-4.8-2.2-7.5,0-2.8-.2-5.5-2.3-7.6-2.5-2.5-6.7-2.5-9.3.1-2.6,2.6-2.7,6.8-.1,9.3s3.1,2,5,1.8c1.1,0,2.1.8,2.2,1.9s-.8,2.1-1.9,2.2c-3.1.2-6.1-.9-8.2-3-4.1-4.1-4.1-10.9.1-15.1,4.2-4.2,11-4.3,15.1-.1,3.3,3.3,3.4,7.2,3.5,10.4,0,2.1.1,3.8,1,4.7l5.3,5.3c.8.8.8,2.1,0,2.9-.4.4-.9.6-1.5.6Z"/>
      </g>
    </g>
  </g>
</svg>