<?xml version="1.0" encoding="UTF-8"?>
<svg xmlns="http://www.w3.org/2000/svg" version="1.1" viewBox="0 0 30 30">
  <defs>
    <style>
      .cls-1 {
        fill: #225643;
      }

      .cls-2 {
        fill: #45e688;
      }
    </style>
  </defs>
  <!-- Generator: Adobe Illustrator 28.7.5, SVG Export Plug-In . SVG Version: 1.2.0 Build 176)  -->
  <g>
    <g id="Capa_1">
      <circle class="cls-2" cx="15" cy="15" r="15"/>
      <g>
        <path class="cls-1" d="M20.9,17.2c-.1,0-.3,0-.3-.2,0-.2,0-.4.2-.5,1-.5,1.8-1,2.3-1.6-.4-1.2-1.6-3.9-2.2-4.5-.1-.2-.1-.4,0-.5.2-.1.4-.1.5,0,.8.8,2.1,3.9,2.4,4.9,0,.1,0,.2,0,.3-.7,1-2,1.7-2.7,2.1,0,0-.1,0-.2,0Z"/>
        <path class="cls-1" d="M7.7,17.2c0,0-.1,0-.2,0-.7-.3-1.9-1-2.6-2,0,0,0-.2,0-.3.3-1,1.6-4.1,2.4-4.9.8-.9,3.7-1.9,4.1-2,.1,0,.3,0,.4.1.3.4,1.1,1.3,2.6,1.3s.7,0,1.1-.2c.2,0,.4,0,.5.2,0,.2,0,.4-.2.5-.4.1-.9.2-1.3.2-1.6,0-2.6-.9-3-1.4-1.2.5-3,1.2-3.5,1.8-.6.6-1.8,3.3-2.2,4.5.6.8,1.6,1.4,2.2,1.6.2,0,.3.3.2.5,0,.1-.2.2-.3.2Z"/>
        <path class="cls-1" d="M14.3,25.4c-3.4,0-5.4-1-5.5-1-.1,0-.2-.2-.2-.3v-8.6c0-.2.2-.4.4-.4s.4.2.4.4v8.4c.6.2,2.3.8,4.9.8s4.3-.6,4.9-.8v-8.4c0-.2.2-.4.4-.4s.4.2.4.4v8.6c0,.1,0,.3-.2.3s-2,1-5.5,1Z"/>
        <path class="cls-1" d="M15.8,17.2c-.1,0-.3,0-.3-.2l-.9-1.8-1.8-.9c-.1,0-.2-.2-.2-.3s0-.3.2-.3l1.8-.9.9-1.8c0-.1.2-.2.3-.2h0c.1,0,.3,0,.3.2l.9,1.8,1.8.9c.1,0,.2.2.2.3s0,.3-.2.3l-1.8.9-.9,1.8c0,.1-.2.2-.3.2ZM13.7,14l1.2.6c0,0,.1,0,.2.2l.6,1.3.6-1.2c0,0,0-.1.2-.2l1.2-.6-1.2-.6c0,0-.1,0-.2-.2l-.6-1.3-.6,1.3c0,0,0,.1-.2.2l-1.2.6Z"/>
        <path class="cls-1" d="M18.7,11h0c-.1,0-.3,0-.3-.2l-.9-1.8-1.8-.9c-.1,0-.2-.2-.2-.3s0-.3.2-.3l1.8-.9.9-1.8c.1-.3.5-.3.7,0l.9,1.8,1.8.9c.1,0,.2.2.2.3s0,.3-.2.3l-1.8.9-.9,1.8c0,.1-.2.2-.3.2ZM16.6,7.7l1.3.6c0,0,.1,0,.2.2l.6,1.2.6-1.3c0,0,0-.1.2-.2l1.2-.6-1.2-.6c0,0-.1,0-.2-.2l-.6-1.3-.6,1.2c0,0,0,.1-.2.2l-1.3.6Z"/>
        <rect class="cls-1" x="24" y="8.2" width=".8" height="1"/>
        <rect class="cls-1" x="24" y="10.1" width=".8" height="1"/>
        <rect class="cls-1" x="24.9" y="9.3" width="1" height=".8"/>
        <rect class="cls-1" x="23" y="9.3" width="1" height=".8"/>
      </g>
    </g>
  </g>
</svg>